<mxfile host="Electron" agent="Mozilla/5.0 (Windows NT 10.0; Win64; x64) AppleWebKit/537.36 (KHTML, like Gecko) draw.io/24.7.5 Chrome/126.0.6478.183 Electron/31.3.0 Safari/537.36" version="24.7.5" pages="2">
  <diagram name="第 1 页" id="zUBGQKhVvrs_XoEv8teV">
    <mxGraphModel dx="863" dy="505" grid="1" gridSize="10" guides="1" tooltips="1" connect="1" arrows="1" fold="1" page="1" pageScale="1" pageWidth="583" pageHeight="827" math="0" shadow="0">
      <root>
        <mxCell id="0" />
        <mxCell id="1" parent="0" />
        <mxCell id="kZGW2jwJLN7_lNjUT_wk-10" style="edgeStyle=orthogonalEdgeStyle;rounded=0;orthogonalLoop=1;jettySize=auto;html=1;" edge="1" parent="1" source="kZGW2jwJLN7_lNjUT_wk-3">
          <mxGeometry relative="1" as="geometry">
            <mxPoint x="350" y="160" as="targetPoint" />
          </mxGeometry>
        </mxCell>
        <mxCell id="kZGW2jwJLN7_lNjUT_wk-3" value="&amp;nbsp; &amp;nbsp; &amp;nbsp; &amp;nbsp; &amp;nbsp; &amp;nbsp; &amp;nbsp; &amp;nbsp; &amp;nbsp; &amp;nbsp;&amp;nbsp;" style="shape=actor;whiteSpace=wrap;html=1;" vertex="1" parent="1">
          <mxGeometry x="440" y="130" width="40" height="60" as="geometry" />
        </mxCell>
        <mxCell id="kZGW2jwJLN7_lNjUT_wk-11" style="edgeStyle=orthogonalEdgeStyle;rounded=0;orthogonalLoop=1;jettySize=auto;html=1;" edge="1" parent="1" source="kZGW2jwJLN7_lNjUT_wk-4">
          <mxGeometry relative="1" as="geometry">
            <mxPoint x="220" y="160" as="targetPoint" />
          </mxGeometry>
        </mxCell>
        <mxCell id="kZGW2jwJLN7_lNjUT_wk-4" value="" style="shape=actor;whiteSpace=wrap;html=1;" vertex="1" parent="1">
          <mxGeometry x="300" y="130" width="40" height="60" as="geometry" />
        </mxCell>
        <mxCell id="kZGW2jwJLN7_lNjUT_wk-5" value="" style="shape=actor;whiteSpace=wrap;html=1;" vertex="1" parent="1">
          <mxGeometry x="160" y="130" width="40" height="60" as="geometry" />
        </mxCell>
        <mxCell id="kZGW2jwJLN7_lNjUT_wk-6" value="&lt;div&gt;一般使用者&lt;/div&gt;user" style="text;html=1;align=center;verticalAlign=middle;resizable=0;points=[];autosize=1;strokeColor=none;fillColor=none;" vertex="1" parent="1">
          <mxGeometry x="420" y="190" width="80" height="40" as="geometry" />
        </mxCell>
        <mxCell id="kZGW2jwJLN7_lNjUT_wk-8" value="&lt;div&gt;主管(批准人員)&lt;/div&gt;user" style="text;html=1;align=center;verticalAlign=middle;resizable=0;points=[];autosize=1;strokeColor=none;fillColor=none;" vertex="1" parent="1">
          <mxGeometry x="270" y="190" width="100" height="40" as="geometry" />
        </mxCell>
        <mxCell id="kZGW2jwJLN7_lNjUT_wk-9" value="管理人員&lt;div&gt;&lt;/div&gt;&lt;div&gt;Admin / HR admin&lt;/div&gt;" style="text;html=1;align=center;verticalAlign=middle;resizable=0;points=[];autosize=1;strokeColor=none;fillColor=none;" vertex="1" parent="1">
          <mxGeometry x="120" y="190" width="120" height="40" as="geometry" />
        </mxCell>
        <mxCell id="kZGW2jwJLN7_lNjUT_wk-12" value="提交休假 / 加班" style="text;html=1;align=center;verticalAlign=middle;resizable=0;points=[];autosize=1;strokeColor=none;fillColor=none;" vertex="1" parent="1">
          <mxGeometry x="343" y="130" width="110" height="30" as="geometry" />
        </mxCell>
        <mxCell id="kZGW2jwJLN7_lNjUT_wk-13" value="提交休假 / 加班" style="text;html=1;align=center;verticalAlign=middle;resizable=0;points=[];autosize=1;strokeColor=none;fillColor=none;" vertex="1" parent="1">
          <mxGeometry x="200" y="130" width="110" height="30" as="geometry" />
        </mxCell>
      </root>
    </mxGraphModel>
  </diagram>
  <diagram id="1ixVgyAmtBGxcDWadN90" name="第 2 页">
    <mxGraphModel dx="987" dy="577" grid="1" gridSize="10" guides="1" tooltips="1" connect="1" arrows="1" fold="1" page="1" pageScale="1" pageWidth="583" pageHeight="827" math="0" shadow="0">
      <root>
        <mxCell id="0" />
        <mxCell id="1" parent="0" />
        <mxCell id="nBzpBHJJuLqjPZF3JEPk-5" value="" style="shape=actor;whiteSpace=wrap;html=1;" vertex="1" parent="1">
          <mxGeometry x="160" y="130" width="40" height="60" as="geometry" />
        </mxCell>
        <mxCell id="nBzpBHJJuLqjPZF3JEPk-8" value="管理人員&lt;div&gt;&lt;/div&gt;&lt;div&gt;Admin / HR admin&lt;/div&gt;" style="text;html=1;align=center;verticalAlign=middle;resizable=0;points=[];autosize=1;strokeColor=none;fillColor=none;" vertex="1" parent="1">
          <mxGeometry x="120" y="190" width="120" height="40" as="geometry" />
        </mxCell>
        <mxCell id="nBzpBHJJuLqjPZF3JEPk-22" style="edgeStyle=orthogonalEdgeStyle;rounded=0;orthogonalLoop=1;jettySize=auto;html=1;" edge="1" parent="1" source="nBzpBHJJuLqjPZF3JEPk-11" target="nBzpBHJJuLqjPZF3JEPk-15">
          <mxGeometry relative="1" as="geometry" />
        </mxCell>
        <mxCell id="nBzpBHJJuLqjPZF3JEPk-11" value="建立&lt;br&gt;企業組織" style="rounded=0;whiteSpace=wrap;html=1;" vertex="1" parent="1">
          <mxGeometry x="90" y="294" width="70" height="30" as="geometry" />
        </mxCell>
        <mxCell id="nBzpBHJJuLqjPZF3JEPk-20" style="edgeStyle=orthogonalEdgeStyle;rounded=0;orthogonalLoop=1;jettySize=auto;html=1;" edge="1" parent="1" source="nBzpBHJJuLqjPZF3JEPk-12">
          <mxGeometry relative="1" as="geometry">
            <mxPoint x="125" y="290" as="targetPoint" />
          </mxGeometry>
        </mxCell>
        <mxCell id="nBzpBHJJuLqjPZF3JEPk-12" value="建立&lt;br&gt;休假類型" style="rounded=0;whiteSpace=wrap;html=1;" vertex="1" parent="1">
          <mxGeometry x="90" y="240" width="70" height="30" as="geometry" />
        </mxCell>
        <mxCell id="nBzpBHJJuLqjPZF3JEPk-23" style="edgeStyle=orthogonalEdgeStyle;rounded=0;orthogonalLoop=1;jettySize=auto;html=1;entryX=0;entryY=0.5;entryDx=0;entryDy=0;" edge="1" parent="1" source="nBzpBHJJuLqjPZF3JEPk-15" target="nBzpBHJJuLqjPZF3JEPk-16">
          <mxGeometry relative="1" as="geometry" />
        </mxCell>
        <mxCell id="nBzpBHJJuLqjPZF3JEPk-15" value="建立合約&lt;br&gt;類別名單" style="rounded=0;whiteSpace=wrap;html=1;" vertex="1" parent="1">
          <mxGeometry x="90" y="344" width="70" height="30" as="geometry" />
        </mxCell>
        <mxCell id="nBzpBHJJuLqjPZF3JEPk-24" style="edgeStyle=orthogonalEdgeStyle;rounded=0;orthogonalLoop=1;jettySize=auto;html=1;" edge="1" parent="1" source="nBzpBHJJuLqjPZF3JEPk-16">
          <mxGeometry relative="1" as="geometry">
            <mxPoint x="235" y="290" as="targetPoint" />
          </mxGeometry>
        </mxCell>
        <mxCell id="nBzpBHJJuLqjPZF3JEPk-16" value="建立&lt;br&gt;員工職稱" style="rounded=0;whiteSpace=wrap;html=1;" vertex="1" parent="1">
          <mxGeometry x="200" y="240" width="70" height="30" as="geometry" />
        </mxCell>
        <mxCell id="nBzpBHJJuLqjPZF3JEPk-25" style="edgeStyle=orthogonalEdgeStyle;rounded=0;orthogonalLoop=1;jettySize=auto;html=1;" edge="1" parent="1" source="nBzpBHJJuLqjPZF3JEPk-17" target="nBzpBHJJuLqjPZF3JEPk-18">
          <mxGeometry relative="1" as="geometry" />
        </mxCell>
        <mxCell id="nBzpBHJJuLqjPZF3JEPk-17" value="建立&lt;br&gt;員工資料" style="rounded=0;whiteSpace=wrap;html=1;" vertex="1" parent="1">
          <mxGeometry x="200" y="294" width="70" height="30" as="geometry" />
        </mxCell>
        <mxCell id="nBzpBHJJuLqjPZF3JEPk-18" value="&lt;font style=&quot;font-size: 11px;&quot;&gt;額外設定&lt;br&gt;享有休假天數&lt;/font&gt;" style="rounded=0;whiteSpace=wrap;html=1;" vertex="1" parent="1">
          <mxGeometry x="200" y="344" width="70" height="30" as="geometry" />
        </mxCell>
      </root>
    </mxGraphModel>
  </diagram>
</mxfile>
